<svg xmlns="http://www.w3.org/2000/svg" width="1431.5" height="540.7"><path fill="#FFF" d="M563.2 114.3c-3.8-.9-26.2-13.4-46-25.2-.5-.3-5.2-3.7-5.2-8.3v-45c0-6.7 7-10.2 7-10.3h.2c18.9-10.9 40.3-22.4 44-23.2 3.6.8 25 12.3 44 23.2h.2c.1 0 7 3.6 7 10.3v45c0 4.5-4.6 7.9-5.2 8.3-19.8 11.7-42.2 24.2-46 25.2z"/><path fill="#FFF" d="M665.6 114.3c-3.8-.9-26.2-13.4-46-25.2-.5-.3-5.2-3.7-5.2-8.3v-45c0-6.7 7-10.2 7-10.3h.2c18.9-10.9 40.3-22.4 44-23.2 3.6.8 25 12.3 44 23.2h.2c.1 0 7 3.6 7 10.3v45c0 4.5-4.6 7.9-5.2 8.3-19.9 11.7-42.2 24.2-46 25.2z"/><path fill="#FFF" d="M767.9 114.3c-3.8-.9-26.2-13.4-46-25.2-.5-.3-5.2-3.7-5.2-8.3v-45c0-6.7 7-10.2 7-10.3h.2c18.9-10.9 40.3-22.4 44-23.2 3.6.8 25 12.3 44 23.2h.2c.1 0 7 3.6 7 10.3v45c0 4.5-4.6 7.9-5.2 8.3-19.8 11.7-42.2 24.2-46 25.2z"/><path fill="#FFF" d="M870.2 114.3c-3.8-.9-26.2-13.4-46-25.2-.5-.3-5.2-3.7-5.2-8.3v-45c0-6.7 7-10.2 7-10.3h.2c18.9-10.9 40.3-22.4 44-23.2 3.6.8 25 12.3 44 23.2h.2c.1 0 7 3.6 7 10.3v45c0 4.5-4.6 7.9-5.2 8.3-19.8 11.7-42.1 24.2-46 25.2z"/><path fill="#F9F9F9" d="M921.4 87.1c3.8.9 26.2 13.4 46 25.2.5.3 5.2 3.7 5.2 8.3v45c0 6.7-7 10.2-7 10.3h-.2c-18.9 10.9-40.3 22.4-44 23.2-3.6-.8-25-12.3-44-23.2h-.2c-.1 0-7-3.6-7-10.3v-45c0-4.5 4.6-7.9 5.2-8.3 19.8-11.8 42.2-24.3 46-25.2zm-409.4 0c3.8.9 26.2 13.4 46 25.2.5.3 5.2 3.7 5.2 8.3v45c0 6.7-7 10.2-7 10.3h-.2c-18.9 10.9-40.3 22.4-44 23.2-3.6-.8-25-12.3-44-23.2h-.2c-.1 0-7-3.6-7-10.3v-45c0-4.5 4.6-7.9 5.2-8.3 19.9-11.8 42.2-24.3 46-25.2z"/><path fill="#FBFCFC" d="M819.1 87.1c3.8.9 26.2 13.4 46 25.2.5.3 5.2 3.7 5.2 8.3v45c0 6.7-7 10.2-7 10.3h-.2c-18.9 10.9-40.3 22.4-44 23.2-3.6-.8-25-12.3-44-23.2h-.2c-.1 0-7-3.6-7-10.3v-45c0-4.5 4.6-7.9 5.2-8.3 19.8-11.8 42.1-24.3 46-25.2z"/><path fill="#F9F9F9" d="M716.7 87.1c3.8.9 26.2 13.4 46 25.2.5.3 5.2 3.7 5.2 8.3v45c0 6.7-7 10.2-7 10.3h-.2c-18.9 10.9-40.3 22.4-44 23.2-3.6-.8-25-12.3-44-23.2h-.2c-.1 0-7-3.6-7-10.3v-45c0-4.5 4.6-7.9 5.2-8.3 19.8-11.8 42.2-24.3 46-25.2z"/><path fill="#FBFCFC" d="M614.4 87.1c3.8.9 26.2 13.4 46 25.2.5.3 5.2 3.7 5.2 8.3v45c0 6.7-7 10.2-7 10.3h-.2c-18.9 10.9-40.3 22.4-44 23.2-3.6-.8-25-12.3-44-23.2h-.2c-.1 0-7-3.6-7-10.3v-45c0-4.5 4.6-7.9 5.2-8.3 19.8-11.8 42.1-24.3 46-25.2z"/><path fill="#FFF" d="M563.2 285.1c-3.8-.9-26.2-13.4-46-25.2-.5-.3-5.2-3.7-5.2-8.3v-45c0-6.7 7-10.2 7-10.3h.2c18.9-10.9 40.3-22.4 44-23.2 3.6.8 25 12.3 44 23.2h.2c.1 0 7 3.6 7 10.3v45c0 4.5-4.6 7.9-5.2 8.3-19.8 11.8-42.2 24.2-46 25.2z"/><path fill="#FFF" d="M665.6 285.6c-3.8-.9-26.2-13.4-46-25.2-.5-.3-5.2-3.7-5.2-8.3v-45c0-6.7 7-10.2 7-10.3h.2c18.9-10.9 40.3-22.4 44-23.2 3.6.8 25 12.3 44 23.2h.2c.1 0 7 3.6 7 10.3v45c0 4.5-4.6 7.9-5.2 8.3-19.9 11.8-42.2 24.3-46 25.2z"/><path fill="#FBFCFC" d="M767.9 285.1c-3.8-.9-26.2-13.4-46-25.2-.5-.3-5.2-3.7-5.2-8.3v-45c0-6.7 7-10.2 7-10.3h.2c18.9-10.9 40.3-22.4 44-23.2 3.6.8 25 12.3 44 23.2h.2c.1 0 7 3.6 7 10.3v45c0 4.5-4.6 7.9-5.2 8.3-19.8 11.8-42.2 24.2-46 25.2z"/><path fill="#FFF" d="M870.2 285.1c-3.8-.9-26.2-13.4-46-25.2-.5-.3-5.2-3.7-5.2-8.3v-45c0-6.7 7-10.2 7-10.3h.2c18.9-10.9 40.3-22.4 44-23.2 3.6.8 25 12.3 44 23.2h.2c.1 0 7 3.6 7 10.3v45c0 4.5-4.6 7.9-5.2 8.3-19.8 11.8-42.1 24.2-46 25.2z"/><path fill="#F9F9F9" d="M921.4 257.9c3.8.9 26.2 13.4 46 25.2.5.3 5.2 3.7 5.2 8.3v45c0 6.7-7 10.2-7 10.3h-.2c-18.9 10.9-40.3 22.4-44 23.2-3.6-.8-25-12.3-44-23.2h-.2c-.1 0-7-3.6-7-10.3v-45c0-4.5 4.6-7.9 5.2-8.3 19.8-11.8 42.2-24.3 46-25.2zm-409.4 0c3.8.9 26.2 13.4 46 25.2.5.3 5.2 3.7 5.2 8.3v45c0 6.7-7 10.2-7 10.3h-.2c-18.9 10.9-40.3 22.4-44 23.2-3.6-.8-25-12.3-44-23.2h-.2c-.1 0-7-3.6-7-10.3v-45c0-4.5 4.6-7.9 5.2-8.3 19.9-11.8 42.2-24.3 46-25.2z"/><path fill="#FBFCFC" d="M819.1 257.9c3.8.9 26.2 13.4 46 25.2.5.3 5.2 3.7 5.2 8.3v45c0 6.7-7 10.2-7 10.3h-.2c-18.9 10.9-40.3 22.4-44 23.2-3.6-.8-25-12.3-44-23.2h-.2c-.1 0-7-3.6-7-10.3v-45c0-4.5 4.6-7.9 5.2-8.3 19.8-11.8 42.1-24.3 46-25.2z"/><path fill="#F9F9F9" d="M716.7 257.9c3.8.9 26.2 13.4 46 25.2.5.3 5.2 3.7 5.2 8.3v45c0 6.7-7 10.2-7 10.3h-.2c-18.9 10.9-40.3 22.4-44 23.2-3.6-.8-25-12.3-44-23.2h-.2c-.1 0-7-3.6-7-10.3v-45c0-4.5 4.6-7.9 5.2-8.3 19.8-11.8 42.2-24.3 46-25.2z"/><path fill="#FBFCFC" d="M614.4 257.9c3.8.9 26.2 13.4 46 25.2.5.3 5.2 3.7 5.2 8.3v45c0 6.7-7 10.2-7 10.3h-.2c-18.9 10.9-40.3 22.4-44 23.2-3.6-.8-25-12.3-44-23.2h-.2c-.1 0-7-3.6-7-10.3v-45c0-4.5 4.6-7.9 5.2-8.3 19.8-11.8 42.1-24.3 46-25.2z"/><path fill="#FBFCFC" d="M563.2 455.9c-3.8-.9-26.2-13.4-46-25.2-.5-.3-5.2-3.7-5.2-8.3v-45c0-6.7 7-10.2 7-10.3h.2c18.9-10.9 40.3-22.4 44-23.2 3.6.8 25 12.3 44 23.2h.2c.1 0 7 3.6 7 10.3v45c0 4.5-4.6 7.9-5.2 8.3-19.8 11.8-42.2 24.3-46 25.2z"/><path fill="#FFF" d="M665.6 455.9c-3.8-.9-26.2-13.4-46-25.2-.5-.3-5.2-3.7-5.2-8.3v-45c0-6.7 7-10.2 7-10.3h.2c18.9-10.9 40.3-22.4 44-23.2 3.6.8 25 12.3 44 23.2h.2c.1 0 7 3.6 7 10.3v45c0 4.5-4.6 7.9-5.2 8.3-19.9 11.8-42.2 24.3-46 25.2z"/><path fill="#FBFCFC" d="M767.9 455.9c-3.8-.9-26.2-13.4-46-25.2-.5-.3-5.2-3.7-5.2-8.3v-45c0-6.7 7-10.2 7-10.3h.2c18.9-10.9 40.3-22.4 44-23.2 3.6.8 25 12.3 44 23.2h.2c.1 0 7 3.6 7 10.3v45c0 4.5-4.6 7.9-5.2 8.3-19.8 11.8-42.2 24.3-46 25.2z"/><path fill="#FFF" d="M870.2 455.9c-3.8-.9-26.2-13.4-46-25.2-.5-.3-5.2-3.7-5.2-8.3v-45c0-6.7 7-10.2 7-10.3h.2c18.9-10.9 40.3-22.4 44-23.2 3.6.8 25 12.3 44 23.2h.2c.1 0 7 3.6 7 10.3v45c0 4.5-4.6 7.9-5.2 8.3-19.8 11.8-42.1 24.3-46 25.2z"/><path fill="#FBFCFC" d="M921.4 428.7c3.8.9 26.2 13.4 46 25.2.5.3 5.2 3.7 5.2 8.3v45c0 6.7-7 10.2-7 10.3h-.2c-18.9 10.9-40.3 22.4-44 23.2-3.6-.8-25-12.3-44-23.2h-.2c-.1 0-7-3.6-7-10.3v-45c0-4.5 4.6-7.9 5.2-8.3 19.8-11.8 42.2-24.2 46-25.2zm-409.4 0c3.8.9 26.2 13.4 46 25.2.5.3 5.2 3.7 5.2 8.3v45c0 6.7-7 10.2-7 10.3h-.2c-18.9 10.9-40.3 22.4-44 23.2-3.6-.8-25-12.3-44-23.2h-.2c-.1 0-7-3.6-7-10.3v-45c0-4.5 4.6-7.9 5.2-8.3 19.9-11.8 42.2-24.2 46-25.2z"/><path fill="#FBFCFC" d="M819.1 428.7c3.8.9 26.2 13.4 46 25.2.5.3 5.2 3.7 5.2 8.3v45c0 6.7-7 10.2-7 10.3h-.2c-18.9 10.9-40.3 22.4-44 23.2-3.6-.8-25-12.3-44-23.2h-.2c-.1 0-7-3.6-7-10.3v-45c0-4.5 4.6-7.9 5.2-8.3 19.8-11.8 42.1-24.2 46-25.2z"/><path fill="#FBFCFC" d="M716.7 428.7c3.8.9 26.2 13.4 46 25.2.5.3 5.2 3.7 5.2 8.3v45c0 6.7-7 10.2-7 10.3h-.2c-18.9 10.9-40.3 22.4-44 23.2-3.6-.8-25-12.3-44-23.2h-.2c-.1 0-7-3.6-7-10.3v-45c0-4.5 4.6-7.9 5.2-8.3 19.8-11.8 42.2-24.2 46-25.2z"/><path fill="#F9F9F9" d="M614.4 428.7c3.8.9 26.2 13.4 46 25.2.5.3 5.2 3.7 5.2 8.3v45c0 6.7-7 10.2-7 10.3h-.2c-18.9 10.9-40.3 22.4-44 23.2-3.6-.8-25-12.3-44-23.2h-.2c-.1 0-7-3.6-7-10.3v-45c0-4.5 4.6-7.9 5.2-8.3 19.8-11.8 42.1-24.2 46-25.2zM1380.3 0c3.8.9 26.2 13.4 46 25.2.5.3 5.2 3.7 5.2 8.3v45c0 6.7-7 10.2-7 10.3h-.2c-18.9 10.9-40.3 22.4-44 23.2-3.6-.8-25-12.3-44-23.2h-.2c-.1 0-7-3.6-7-10.3v-45c0-4.5 4.6-7.9 5.2-8.3 19.8-11.8 42.2-24.3 46-25.2zM970.9 0c3.8.9 26.2 13.4 46 25.2.5.3 5.2 3.7 5.2 8.3v45c0 6.7-7 10.2-7 10.3h-.2c-18.9 10.9-40.3 22.4-44 23.2-3.6-.8-25-12.3-44-23.2h-.2c-.1 0-7-3.6-7-10.3v-45c0-4.5 4.6-7.9 5.2-8.3C944.7 13.4 967.1.9 970.9 0z"/><path fill="#FBFCFC" d="M1277.9 0c3.8.9 26.2 13.4 46 25.2.5.3 5.2 3.7 5.2 8.3v45c0 6.7-7 10.2-7 10.3h-.2c-18.9 10.9-40.3 22.4-44 23.2-3.6-.8-25-12.3-44-23.2h-.2c-.1 0-7-3.6-7-10.3v-45c0-4.5 4.6-7.9 5.2-8.3 19.9-11.8 42.2-24.3 46-25.2z"/><path fill="#F9F9F9" d="M1175.6 0c3.8.9 26.2 13.4 46 25.2.5.3 5.2 3.7 5.2 8.3v45c0 6.7-7 10.2-7 10.3h-.2c-18.9 10.9-40.3 22.4-44 23.2-3.6-.8-25-12.3-44-23.2h-.2c-.1 0-7-3.6-7-10.3v-45c0-4.5 4.6-7.9 5.2-8.3 19.8-11.8 42.2-24.3 46-25.2z"/><path fill="#FBFCFC" d="M1073.3 0c3.8.9 26.2 13.4 46 25.2.5.3 5.2 3.7 5.2 8.3v45c0 6.7-7 10.2-7 10.3h-.2c-18.9 10.9-40.3 22.4-44 23.2-3.6-.8-25-12.3-44-23.2h-.2c-.1 0-7-3.6-7-10.3v-45c0-4.5 4.6-7.9 5.2-8.3 19.8-11.8 42.1-24.3 46-25.2z"/><path fill="#FBFCFC" d="M1022.1 198c-3.8-.9-26.2-13.4-46-25.2-.5-.3-5.2-3.7-5.2-8.3v-45c0-6.7 7-10.2 7-10.3h.2c18.9-10.9 40.3-22.4 44-23.2 3.6.8 25 12.3 44 23.2h.2c.1 0 7 3.6 7 10.3v45c0 4.5-4.6 7.9-5.2 8.3-19.8 11.8-42.2 24.3-46 25.2z"/><path fill="#FFF" d="M1124.4 198c-3.8-.9-26.2-13.4-46-25.2-.5-.3-5.2-3.7-5.2-8.3v-45c0-6.7 7-10.2 7-10.3h.2c18.9-10.9 40.3-22.4 44-23.2 3.6.8 25 12.3 44 23.2h.2c.1 0 7 3.6 7 10.3v45c0 4.5-4.6 7.9-5.2 8.3-19.8 11.8-42.1 24.3-46 25.2z"/><path fill="#FBFCFC" d="M1226.8 198c-3.8-.9-26.2-13.4-46-25.2-.5-.3-5.2-3.7-5.2-8.3v-45c0-6.7 7-10.2 7-10.3h.2c18.9-10.9 40.3-22.4 44-23.2 3.6.8 25 12.3 44 23.2h.2c.1 0 7 3.6 7 10.3v45c0 4.5-4.6 7.9-5.2 8.3-19.8 11.8-42.2 24.3-46 25.2z"/><path fill="#FFF" d="M1329.1 198c-3.8-.9-26.2-13.4-46-25.2-.5-.3-5.2-3.7-5.2-8.3v-45c0-6.7 7-10.2 7-10.3h.2c18.9-10.9 40.3-22.4 44-23.2 3.6.8 25 12.3 44 23.2h.2c.1 0 7 3.6 7 10.3v45c0 4.5-4.6 7.9-5.2 8.3-19.8 11.8-42.1 24.3-46 25.2z"/><path fill="#FBFCFC" d="M1380.3 170.8c3.8.9 26.2 13.4 46 25.2.5.3 5.2 3.7 5.2 8.3v45c0 6.7-7 10.2-7 10.3h-.2c-18.9 10.9-40.3 22.4-44 23.2-3.6-.8-25-12.3-44-23.2h-.2c-.1 0-7-3.6-7-10.3v-45c0-4.5 4.6-7.9 5.2-8.3 19.8-11.8 42.2-24.2 46-25.2zm-409.4 0c3.8.9 26.2 13.4 46 25.2.5.3 5.2 3.7 5.2 8.3v45c0 6.7-7 10.2-7 10.3h-.2c-18.9 10.9-40.3 22.4-44 23.2-3.6-.8-25-12.3-44-23.2h-.2c-.1 0-7-3.6-7-10.3v-45c0-4.5 4.6-7.9 5.2-8.3 19.8-11.8 42.2-24.2 46-25.2z"/><path fill="#FBFCFC" d="M1277.9 170.8c3.8.9 26.2 13.4 46 25.2.5.3 5.2 3.7 5.2 8.3v45c0 6.7-7 10.2-7 10.3h-.2c-18.9 10.9-40.3 22.4-44 23.2-3.6-.8-25-12.3-44-23.2h-.2c-.1 0-7-3.6-7-10.3v-45c0-4.5 4.6-7.9 5.2-8.3 19.9-11.8 42.2-24.2 46-25.2z"/><path fill="#FBFCFC" d="M1175.6 170.8c3.8.9 26.2 13.4 46 25.2.5.3 5.2 3.7 5.2 8.3v45c0 6.7-7 10.2-7 10.3h-.2c-18.9 10.9-40.3 22.4-44 23.2-3.6-.8-25-12.3-44-23.2h-.2c-.1 0-7-3.6-7-10.3v-45c0-4.5 4.6-7.9 5.2-8.3 19.8-11.8 42.2-24.2 46-25.2z"/><path fill="#F9F9F9" d="M1073.3 170.8c3.8.9 26.2 13.4 46 25.2.5.3 5.2 3.7 5.2 8.3v45c0 6.7-7 10.2-7 10.3h-.2c-18.9 10.9-40.3 22.4-44 23.2-3.6-.8-25-12.3-44-23.2h-.2c-.1 0-7-3.6-7-10.3v-45c0-4.5 4.6-7.9 5.2-8.3 19.8-11.8 42.1-24.2 46-25.2z"/><path fill="#FFF" d="M1022.1 368.8c-3.8-.9-26.2-13.4-46-25.2-.5-.3-5.2-3.7-5.2-8.3v-45c0-6.7 7-10.2 7-10.3h.2c18.9-10.9 40.3-22.4 44-23.2 3.6.8 25 12.3 44 23.2h.2c.1 0 7 3.6 7 10.3v45c0 4.5-4.6 7.9-5.2 8.3-19.8 11.8-42.2 24.3-46 25.2z"/><path fill="#FFF" d="M1124.4 368.8c-3.8-.9-26.2-13.4-46-25.2-.5-.3-5.2-3.7-5.2-8.3v-45c0-6.7 7-10.2 7-10.3h.2c18.9-10.9 40.3-22.4 44-23.2 3.6.8 25 12.3 44 23.2h.2c.1 0 7 3.6 7 10.3v45c0 4.5-4.6 7.9-5.2 8.3-19.8 11.8-42.1 24.3-46 25.2z"/><path fill="#FFF" d="M1226.8 368.8c-3.8-.9-26.2-13.4-46-25.2-.5-.3-5.2-3.7-5.2-8.3v-45c0-6.7 7-10.2 7-10.3h.2c18.9-10.9 40.3-22.4 44-23.2 3.6.8 25 12.3 44 23.2h.2c.1 0 7 3.6 7 10.3v45c0 4.5-4.6 7.9-5.2 8.3-19.8 11.8-42.2 24.3-46 25.2z"/><path fill="#FFF" d="M1329.1 368.8c-3.8-.9-26.2-13.4-46-25.2-.5-.3-5.2-3.7-5.2-8.3v-45c0-6.7 7-10.2 7-10.3h.2c18.9-10.9 40.3-22.4 44-23.2 3.6.8 25 12.3 44 23.2h.2c.1 0 7 3.6 7 10.3v45c0 4.5-4.6 7.9-5.2 8.3-19.8 11.8-42.1 24.3-46 25.2z"/><path fill="#FBFCFC" d="M1380.3 341.6c3.8.9 26.2 13.4 46 25.2.5.3 5.2 3.7 5.2 8.3v45c0 6.7-7 10.2-7 10.3h-.2c-18.9 10.9-40.3 22.4-44 23.2-3.6-.8-25-12.3-44-23.2h-.2c-.1 0-7-3.6-7-10.3v-45c0-4.5 4.6-7.9 5.2-8.3 19.8-11.7 42.2-24.2 46-25.2zm-409.4 0c3.8.9 26.2 13.4 46 25.2.5.3 5.2 3.7 5.2 8.3v45c0 6.7-7 10.2-7 10.3h-.2c-18.9 10.9-40.3 22.4-44 23.2-3.6-.8-25-12.3-44-23.2h-.2c-.1 0-7-3.6-7-10.3v-45c0-4.5 4.6-7.9 5.2-8.3 19.8-11.7 42.2-24.2 46-25.2z"/><path fill="#FBFCFC" d="M1277.9 341.6c3.8.9 26.2 13.4 46 25.2.5.3 5.2 3.7 5.2 8.3v45c0 6.7-7 10.2-7 10.3h-.2c-18.9 10.9-40.3 22.4-44 23.2-3.6-.8-25-12.3-44-23.2h-.2c-.1 0-7-3.6-7-10.3v-45c0-4.5 4.6-7.9 5.2-8.3 19.9-11.7 42.2-24.2 46-25.2z"/><path fill="#FBFCFC" d="M1175.6 341.6c3.8.9 26.2 13.4 46 25.2.5.3 5.2 3.7 5.2 8.3v45c0 6.7-7 10.2-7 10.3h-.2c-18.9 10.9-40.3 22.4-44 23.2-3.6-.8-25-12.3-44-23.2h-.2c-.1 0-7-3.6-7-10.3v-45c0-4.5 4.6-7.9 5.2-8.3 19.8-11.7 42.2-24.2 46-25.2z"/><path fill="#F9F9F9" d="M1073.3 341.6c3.8.9 26.2 13.4 46 25.2.5.3 5.2 3.7 5.2 8.3v45c0 6.7-7 10.2-7 10.3h-.2c-18.9 10.9-40.3 22.4-44 23.2-3.6-.8-25-12.3-44-23.2h-.2c-.1 0-7-3.6-7-10.3v-45c0-4.5 4.6-7.9 5.2-8.3 19.8-11.7 42.1-24.2 46-25.2zM460.6 1.1c3.8.9 26.2 13.4 46 25.2.5.3 5.2 3.7 5.2 8.3v45c0 6.7-7 10.2-7 10.3h-.2c-18.9 10.9-40.3 22.4-44 23.2-3.6-.8-25-12.3-44-23.2h-.2c-.1 0-7-3.6-7-10.3v-45c0-4.5 4.6-7.9 5.2-8.3 19.8-11.8 42.1-24.3 46-25.2zm-409.4 0c3.8.9 26.2 13.4 46 25.2.5.3 5.2 3.7 5.2 8.3v45c0 6.7-7 10.2-7 10.3h-.2c-18.9 10.9-40.3 22.4-44 23.2-3.6-.8-25-12.3-44-23.2H7c-.1 0-7-3.6-7-10.3v-45c0-4.5 4.6-7.9 5.2-8.3C25 14.5 47.3 2 51.2 1.1z"/><path fill="#FBFCFC" d="M358.2 1.1c3.8.9 26.2 13.4 46 25.2.5.3 5.2 3.7 5.2 8.3v45c0 6.7-7 10.2-7 10.3h-.2c-18.9 10.9-40.3 22.4-44 23.2-3.6-.8-25-12.3-44-23.2h-.2c-.1 0-7-3.6-7-10.3v-45c0-4.5 4.6-7.9 5.2-8.3C332 14.5 354.4 2 358.2 1.1z"/><path fill="#F9F9F9" d="M255.9 1.1c3.8.9 26.2 13.4 46 25.2.5.3 5.2 3.7 5.2 8.3v45c0 6.7-7 10.2-7 10.3h-.2c-18.9 10.9-40.3 22.4-44 23.2-3.6-.8-25-12.3-44-23.2h-.2c-.1 0-7-3.6-7-10.3v-45c0-4.5 4.6-7.9 5.2-8.3C229.7 14.5 252 2 255.9 1.1zm-102.4 0c3.8.9 26.2 13.4 46 25.2.5.3 5.2 3.7 5.2 8.3v45c0 6.7-7 10.2-7 10.3h-.2c-18.9 10.9-40.3 22.4-44 23.2-3.6-.8-25-12.3-44-23.2h-.2c-.1 0-7-3.6-7-10.3v-45c0-4.5 4.6-7.9 5.2-8.3 19.8-11.8 42.2-24.3 46-25.2z"/><path fill="#FFF" d="M102.3 199.1c-3.8-.9-26.2-13.4-46-25.2-.5-.3-5.2-3.7-5.2-8.3v-45c0-6.7 7-10.2 7-10.3h.2c18.9-10.9 40.3-22.4 44-23.2 3.6.8 25 12.3 44 23.2h.2c.1 0 7 3.6 7 10.3v45c0 4.5-4.6 7.9-5.2 8.3-19.8 11.8-42.1 24.3-46 25.2zm102.4.5c-3.8-.9-26.2-13.4-46-25.2-.5-.3-5.2-3.7-5.2-8.3v-45c0-6.7 7-10.2 7-10.3h.2c18.9-10.9 40.3-22.4 44-23.2 3.6.8 25 12.3 44 23.2h.2c.1 0 7 3.6 7 10.3v45c0 4.5-4.6 7.9-5.2 8.3-19.8 11.8-42.2 24.3-46 25.2z"/><path fill="#FBFCFC" d="M307 199.1c-3.8-.9-26.2-13.4-46-25.2-.5-.3-5.2-3.7-5.2-8.3v-45c0-6.7 7-10.2 7-10.3h.2c18.9-10.9 40.3-22.4 44-23.2 3.6.8 25 12.3 44 23.2h.2c.1 0 7 3.6 7 10.3v45c0 4.5-4.6 7.9-5.2 8.3-19.8 11.8-42.1 24.3-46 25.2z"/><path fill="#FFF" d="M409.4 199.1c-3.8-.9-26.2-13.4-46-25.2-.5-.3-5.2-3.7-5.2-8.3v-45c0-6.7 7-10.2 7-10.3h.2c18.9-10.9 40.3-22.4 44-23.2 3.6.8 25 12.3 44 23.2h.2c.1 0 7 3.6 7 10.3v45c0 4.5-4.6 7.9-5.2 8.3-19.8 11.8-42.2 24.3-46 25.2z"/><path fill="#FBFCFC" d="M460.6 171.9c3.8.9 26.2 13.4 46 25.2.5.3 5.2 3.7 5.2 8.3v45c0 6.7-7 10.2-7 10.3h-.2c-18.9 10.9-40.3 22.4-44 23.2-3.6-.8-25-12.3-44-23.2h-.2c-.1 0-7-3.6-7-10.3v-45c0-4.5 4.6-7.9 5.2-8.3 19.8-11.8 42.1-24.2 46-25.2z"/><path fill="#F9F9F9" d="M51.2 171.9c3.8.9 26.2 13.4 46 25.2.5.3 5.2 3.7 5.2 8.3v45c0 6.7-7 10.2-7 10.3h-.2c-18.9 10.9-40.3 22.4-44 23.2-3.6-.8-25-12.3-44-23.2H7c-.1 0-7-3.6-7-10.3v-45c0-4.5 4.6-7.9 5.2-8.3 19.8-11.8 42.1-24.2 46-25.2z"/><path fill="#FBFCFC" d="M358.2 171.9c3.8.9 26.2 13.4 46 25.2.5.3 5.2 3.7 5.2 8.3v45c0 6.7-7 10.2-7 10.3h-.2c-18.9 10.9-40.3 22.4-44 23.2-3.6-.8-25-12.3-44-23.2h-.2c-.1 0-7-3.6-7-10.3v-45c0-4.5 4.6-7.9 5.2-8.3 19.8-11.8 42.2-24.2 46-25.2z"/><path fill="#F9F9F9" d="M255.9 171.9c3.8.9 26.2 13.4 46 25.2.5.3 5.2 3.7 5.2 8.3v45c0 6.7-7 10.2-7 10.3h-.2c-18.9 10.9-40.3 22.4-44 23.2-3.6-.8-25-12.3-44-23.2h-.2c-.1 0-7-3.6-7-10.3v-45c0-4.5 4.6-7.9 5.2-8.3 19.8-11.8 42.1-24.2 46-25.2z"/><path fill="#FBFCFC" d="M153.5 171.9c3.8.9 26.2 13.4 46 25.2.5.3 5.2 3.7 5.2 8.3v45c0 6.7-7 10.2-7 10.3h-.2c-18.9 10.9-40.3 22.4-44 23.2-3.6-.8-25-12.3-44-23.2h-.2c-.1 0-7-3.6-7-10.3v-45c0-4.5 4.6-7.9 5.2-8.3 19.8-11.8 42.2-24.2 46-25.2z"/><path fill="#FBFCFC" d="M102.3 369.9c-3.8-.9-26.2-13.4-46-25.2-.5-.3-5.2-3.7-5.2-8.3v-45c0-6.7 7-10.2 7-10.3h.2c18.9-10.9 40.3-22.4 44-23.2 3.6.8 25 12.3 44 23.2h.2c.1 0 7 3.6 7 10.3v45c0 4.5-4.6 7.9-5.2 8.3-19.8 11.8-42.1 24.3-46 25.2z"/><path fill="#FFF" d="M204.7 369.9c-3.8-.9-26.2-13.4-46-25.2-.5-.3-5.2-3.7-5.2-8.3v-45c0-6.7 7-10.2 7-10.3h.2c18.9-10.9 40.3-22.4 44-23.2 3.6.8 25 12.3 44 23.2h.2c.1 0 7 3.6 7 10.3v45c0 4.5-4.6 7.9-5.2 8.3-19.8 11.8-42.2 24.3-46 25.2z"/><path fill="#FBFCFC" d="M307 369.9c-3.8-.9-26.2-13.4-46-25.2-.5-.3-5.2-3.7-5.2-8.3v-45c0-6.7 7-10.2 7-10.3h.2c18.9-10.9 40.3-22.4 44-23.2 3.6.8 25 12.3 44 23.2h.2c.1 0 7 3.6 7 10.3v45c0 4.5-4.6 7.9-5.2 8.3-19.8 11.8-42.1 24.3-46 25.2z"/><path fill="#FFF" d="M409.4 369.9c-3.8-.9-26.2-13.4-46-25.2-.5-.3-5.2-3.7-5.2-8.3v-45c0-6.7 7-10.2 7-10.3h.2c18.9-10.9 40.3-22.4 44-23.2 3.6.8 25 12.3 44 23.2h.2c.1 0 7 3.6 7 10.3v45c0 4.5-4.6 7.9-5.2 8.3-19.8 11.8-42.2 24.3-46 25.2z"/><path fill="#FBFCFC" d="M460.6 342.7c3.8.9 26.2 13.4 46 25.2.5.3 5.2 3.7 5.2 8.3v45c0 6.7-7 10.2-7 10.3h-.2c-18.9 10.9-40.3 22.4-44 23.2-3.6-.8-25-12.3-44-23.2h-.2c-.1 0-7-3.6-7-10.3v-45c0-4.5 4.6-7.9 5.2-8.3 19.8-11.7 42.1-24.2 46-25.2zm-409.4 0c3.8.9 26.2 13.4 46 25.2.5.3 5.2 3.7 5.2 8.3v45c0 6.7-7 10.2-7 10.3h-.2c-18.9 10.9-40.3 22.4-44 23.2-3.6-.8-25-12.3-44-23.2H7c-.1 0-7-3.6-7-10.3v-45c0-4.5 4.6-7.9 5.2-8.3 19.8-11.7 42.1-24.2 46-25.2zm307 0c3.8.9 26.2 13.4 46 25.2.5.3 5.2 3.7 5.2 8.3v45c0 6.7-7 10.2-7 10.3h-.2c-18.9 10.9-40.3 22.4-44 23.2-3.6-.8-25-12.3-44-23.2h-.2c-.1 0-7-3.6-7-10.3v-45c0-4.5 4.6-7.9 5.2-8.3 19.8-11.7 42.2-24.2 46-25.2z"/><path fill="#FBFCFC" d="M255.9 342.7c3.8.9 26.2 13.4 46 25.2.5.3 5.2 3.7 5.2 8.3v45c0 6.7-7 10.2-7 10.3h-.2c-18.9 10.9-40.3 22.4-44 23.2-3.6-.8-25-12.3-44-23.2h-.2c-.1 0-7-3.6-7-10.3v-45c0-4.5 4.6-7.9 5.2-8.3 19.8-11.7 42.1-24.2 46-25.2z"/><path fill="#F9F9F9" d="M153.5 342.7c3.8.9 26.2 13.4 46 25.2.5.3 5.2 3.7 5.2 8.3v45c0 6.7-7 10.2-7 10.3h-.2c-18.9 10.9-40.3 22.4-44 23.2-3.6-.8-25-12.3-44-23.2h-.2c-.1 0-7-3.6-7-10.3v-45c0-4.5 4.6-7.9 5.2-8.3 19.8-11.7 42.2-24.2 46-25.2z"/><path fill="#FFF" d="M102.3 540.7c-3.8-.9-26.2-13.4-46-25.2-.5-.3-5.2-3.7-5.2-8.3v-45c0-6.7 7-10.2 7-10.3h.2c18.9-10.9 40.3-22.4 44-23.2 3.6.8 25 12.3 44 23.2h.2c.1 0 7 3.6 7 10.3v45c0 4.5-4.6 7.9-5.2 8.3-19.8 11.8-42.1 24.3-46 25.2zm102.4 0c-3.8-.9-26.2-13.4-46-25.2-.5-.3-5.2-3.7-5.2-8.3v-45c0-6.7 7-10.2 7-10.3h.2c18.9-10.9 40.3-22.4 44-23.2 3.6.8 25 12.3 44 23.2h.2c.1 0 7 3.6 7 10.3v45c0 4.5-4.6 7.9-5.2 8.3-19.8 11.8-42.2 24.3-46 25.2z"/><path fill="#FFF" d="M307 540.7c-3.8-.9-26.2-13.4-46-25.2-.5-.3-5.2-3.7-5.2-8.3v-45c0-6.7 7-10.2 7-10.3h.2c18.9-10.9 40.3-22.4 44-23.2 3.6.8 25 12.3 44 23.2h.2c.1 0 7 3.6 7 10.3v45c0 4.5-4.6 7.9-5.2 8.3-19.8 11.8-42.1 24.3-46 25.2zm102.4 0c-3.8-.9-26.2-13.4-46-25.2-.5-.3-5.2-3.7-5.2-8.3v-45c0-6.7 7-10.2 7-10.3h.2c18.9-10.9 40.3-22.4 44-23.2 3.6.8 25 12.3 44 23.2h.2c.1 0 7 3.6 7 10.3v45c0 4.5-4.6 7.9-5.2 8.3-19.8 11.8-42.2 24.3-46 25.2zm612.5-.7c-3.8-.9-26.2-13.4-46-25.2-.5-.3-5.2-3.7-5.2-8.3v-45c0-6.7 7-10.2 7-10.3h.2c18.9-10.9 40.3-22.4 44-23.2 3.6.8 25 12.3 44 23.2h.2c.1 0 7 3.6 7 10.3v45c0 4.5-4.6 7.9-5.2 8.3-19.8 11.8-42.1 24.2-46 25.2z"/><path fill="#FFF" d="M1124.3 540c-3.8-.9-26.2-13.4-46-25.2-.5-.3-5.2-3.7-5.2-8.3v-45c0-6.7 7-10.2 7-10.3h.2c18.9-10.9 40.3-22.4 44-23.2 3.6.8 25 12.3 44 23.2h.2c.1 0 7 3.6 7 10.3v45c0 4.5-4.6 7.9-5.2 8.3-19.8 11.8-42.2 24.2-46 25.2z"/><path fill="#FFF" d="M1226.6 540c-3.8-.9-26.2-13.4-46-25.2-.5-.3-5.2-3.7-5.2-8.3v-45c0-6.7 7-10.2 7-10.3h.2c18.9-10.9 40.3-22.4 44-23.2 3.6.8 25 12.3 44 23.2h.2c.1 0 7 3.6 7 10.3v45c0 4.5-4.6 7.9-5.2 8.3-19.8 11.8-42.1 24.2-46 25.2zm102.4 0c-3.8-.9-26.2-13.4-46-25.2-.5-.3-5.2-3.7-5.2-8.3v-45c0-6.7 7-10.2 7-10.3h.2c18.9-10.9 40.3-22.4 44-23.2 3.6.8 25 12.3 44 23.2h.2c.1 0 7 3.6 7 10.3v45c0 4.5-4.6 7.9-5.2 8.3-19.9 11.8-42.2 24.2-46 25.2z"/></svg>